<mxfile host="65bd71144e">
    <diagram id="VGDUxLbk9MbNkcOqTGXN" name="Page-1">
        <mxGraphModel dx="597" dy="524" grid="1" gridSize="10" guides="1" tooltips="1" connect="1" arrows="1" fold="1" page="1" pageScale="1" pageWidth="827" pageHeight="1169" background="none" math="0" shadow="0">
            <root>
                <mxCell id="0"/>
                <mxCell id="1" parent="0"/>
                <mxCell id="3orKfRhoxR8PiGyoWkrm-4" value="" style="edgeStyle=orthogonalEdgeStyle;rounded=0;orthogonalLoop=1;jettySize=auto;html=1;entryX=0;entryY=0.5;entryDx=0;entryDy=0;" parent="1" source="3orKfRhoxR8PiGyoWkrm-1" target="3orKfRhoxR8PiGyoWkrm-12" edge="1">
                    <mxGeometry relative="1" as="geometry">
                        <mxPoint x="410" y="70" as="targetPoint"/>
                    </mxGeometry>
                </mxCell>
                <mxCell id="3orKfRhoxR8PiGyoWkrm-5" value="网络传输" style="edgeLabel;html=1;align=center;verticalAlign=middle;resizable=0;points=[];" parent="3orKfRhoxR8PiGyoWkrm-4" vertex="1" connectable="0">
                    <mxGeometry x="0.2545" relative="1" as="geometry">
                        <mxPoint x="-47" as="offset"/>
                    </mxGeometry>
                </mxCell>
                <mxCell id="3orKfRhoxR8PiGyoWkrm-1" value="&lt;span&gt;网路包&lt;/span&gt;" style="rounded=1;whiteSpace=wrap;html=1;align=center;" parent="1" vertex="1">
                    <mxGeometry x="100" y="50" width="90" height="60" as="geometry"/>
                </mxCell>
                <mxCell id="3orKfRhoxR8PiGyoWkrm-11" value="服务器" style="swimlane;" parent="1" vertex="1">
                    <mxGeometry x="310" y="20" width="470" height="460" as="geometry"/>
                </mxCell>
                <mxCell id="3orKfRhoxR8PiGyoWkrm-18" value="" style="edgeStyle=orthogonalEdgeStyle;rounded=0;orthogonalLoop=1;jettySize=auto;html=1;" parent="3orKfRhoxR8PiGyoWkrm-11" source="3orKfRhoxR8PiGyoWkrm-12" target="3orKfRhoxR8PiGyoWkrm-17" edge="1">
                    <mxGeometry relative="1" as="geometry"/>
                </mxCell>
                <mxCell id="3orKfRhoxR8PiGyoWkrm-19" value="2.产生硬中断，通知cpu" style="edgeLabel;html=1;align=center;verticalAlign=middle;resizable=0;points=[];" parent="3orKfRhoxR8PiGyoWkrm-18" vertex="1" connectable="0">
                    <mxGeometry x="-0.4" y="-2" relative="1" as="geometry">
                        <mxPoint y="10" as="offset"/>
                    </mxGeometry>
                </mxCell>
                <mxCell id="3orKfRhoxR8PiGyoWkrm-12" value="网卡" style="rounded=1;whiteSpace=wrap;html=1;fillColor=#0050ef;fontColor=#ffffff;strokeColor=#001DBC;" parent="3orKfRhoxR8PiGyoWkrm-11" vertex="1">
                    <mxGeometry x="41" y="55" width="60" height="30" as="geometry"/>
                </mxCell>
                <mxCell id="3orKfRhoxR8PiGyoWkrm-15" value="内核态缓冲区" style="rounded=1;whiteSpace=wrap;html=1;fillColor=#1ba1e2;fontColor=#ffffff;strokeColor=#006EAF;" parent="3orKfRhoxR8PiGyoWkrm-11" vertex="1">
                    <mxGeometry x="330" y="180" width="90" height="40" as="geometry"/>
                </mxCell>
                <mxCell id="3orKfRhoxR8PiGyoWkrm-20" style="edgeStyle=orthogonalEdgeStyle;rounded=0;orthogonalLoop=1;jettySize=auto;html=1;entryX=0;entryY=0.5;entryDx=0;entryDy=0;" parent="3orKfRhoxR8PiGyoWkrm-11" source="3orKfRhoxR8PiGyoWkrm-17" target="3orKfRhoxR8PiGyoWkrm-15" edge="1">
                    <mxGeometry relative="1" as="geometry"/>
                </mxCell>
                <mxCell id="3orKfRhoxR8PiGyoWkrm-32" value="3" style="edgeLabel;html=1;align=center;verticalAlign=middle;resizable=0;points=[];" parent="3orKfRhoxR8PiGyoWkrm-20" vertex="1" connectable="0">
                    <mxGeometry x="-0.2435" y="-2" relative="1" as="geometry">
                        <mxPoint as="offset"/>
                    </mxGeometry>
                </mxCell>
                <mxCell id="3orKfRhoxR8PiGyoWkrm-28" value="4.唤醒用户线程" style="edgeStyle=orthogonalEdgeStyle;rounded=0;orthogonalLoop=1;jettySize=auto;html=1;entryX=0.5;entryY=0;entryDx=0;entryDy=0;" parent="3orKfRhoxR8PiGyoWkrm-11" source="3orKfRhoxR8PiGyoWkrm-17" edge="1">
                    <mxGeometry relative="1" as="geometry">
                        <mxPoint x="70.5" y="290" as="targetPoint"/>
                    </mxGeometry>
                </mxCell>
                <mxCell id="3orKfRhoxR8PiGyoWkrm-17" value="cpu" style="whiteSpace=wrap;html=1;rounded=1;fillColor=#0050ef;fontColor=#ffffff;strokeColor=#001DBC;" parent="3orKfRhoxR8PiGyoWkrm-11" vertex="1">
                    <mxGeometry x="40" y="180" width="60" height="40" as="geometry"/>
                </mxCell>
                <mxCell id="3orKfRhoxR8PiGyoWkrm-22" value="用户态&lt;br&gt;socket&amp;nbsp; resv队列" style="rounded=1;whiteSpace=wrap;html=1;fillColor=#1ba1e2;fontColor=#ffffff;strokeColor=#006EAF;" parent="3orKfRhoxR8PiGyoWkrm-11" vertex="1">
                    <mxGeometry x="310" y="300" width="120" height="60" as="geometry"/>
                </mxCell>
                <mxCell id="3orKfRhoxR8PiGyoWkrm-24" value="" style="endArrow=classic;html=1;rounded=0;entryX=0.575;entryY=-0.083;entryDx=0;entryDy=0;exitX=0.5;exitY=1;exitDx=0;exitDy=0;entryPerimeter=0;" parent="3orKfRhoxR8PiGyoWkrm-11" source="3orKfRhoxR8PiGyoWkrm-15" target="3orKfRhoxR8PiGyoWkrm-22" edge="1">
                    <mxGeometry width="50" height="50" relative="1" as="geometry">
                        <mxPoint x="340" y="310" as="sourcePoint"/>
                        <mxPoint x="390" y="260" as="targetPoint"/>
                    </mxGeometry>
                </mxCell>
                <mxCell id="3orKfRhoxR8PiGyoWkrm-31" value="3.cpu将ring buffer中的数据，&lt;br&gt;经过协议栈解析后，" style="edgeLabel;html=1;align=center;verticalAlign=middle;resizable=0;points=[];" parent="3orKfRhoxR8PiGyoWkrm-24" vertex="1" connectable="0">
                    <mxGeometry x="-0.0966" y="2" relative="1" as="geometry">
                        <mxPoint as="offset"/>
                    </mxGeometry>
                </mxCell>
                <mxCell id="3orKfRhoxR8PiGyoWkrm-29" value="5.处理socket队列" style="edgeStyle=orthogonalEdgeStyle;rounded=0;orthogonalLoop=1;jettySize=auto;html=1;entryX=0;entryY=0.5;entryDx=0;entryDy=0;exitX=1;exitY=0.5;exitDx=0;exitDy=0;" parent="3orKfRhoxR8PiGyoWkrm-11" source="3orKfRhoxR8PiGyoWkrm-27" target="3orKfRhoxR8PiGyoWkrm-22" edge="1">
                    <mxGeometry relative="1" as="geometry">
                        <mxPoint x="120.75" y="320" as="sourcePoint"/>
                        <Array as="points"/>
                    </mxGeometry>
                </mxCell>
                <mxCell id="3orKfRhoxR8PiGyoWkrm-27" value="用户线程&lt;br&gt;（java，redis..）" style="ellipse;whiteSpace=wrap;html=1;fillColor=#e3c800;fontColor=#000000;strokeColor=#B09500;" parent="3orKfRhoxR8PiGyoWkrm-11" vertex="1">
                    <mxGeometry x="10.25" y="300" width="100.5" height="60" as="geometry"/>
                </mxCell>
                <mxCell id="3orKfRhoxR8PiGyoWkrm-13" value="DMA" style="rounded=1;whiteSpace=wrap;html=1;fillColor=#0050ef;fontColor=#ffffff;strokeColor=#001DBC;" parent="1" vertex="1">
                    <mxGeometry x="680" y="50" width="70" height="50" as="geometry"/>
                </mxCell>
                <mxCell id="3orKfRhoxR8PiGyoWkrm-14" value="1.通过DMA将网络帧，copy到内核" style="edgeStyle=orthogonalEdgeStyle;rounded=0;orthogonalLoop=1;jettySize=auto;html=1;" parent="1" source="3orKfRhoxR8PiGyoWkrm-12" target="3orKfRhoxR8PiGyoWkrm-13" edge="1">
                    <mxGeometry relative="1" as="geometry">
                        <mxPoint as="offset"/>
                    </mxGeometry>
                </mxCell>
                <mxCell id="3orKfRhoxR8PiGyoWkrm-16" value="将网络包拷贝到" style="edgeStyle=orthogonalEdgeStyle;rounded=0;orthogonalLoop=1;jettySize=auto;html=1;" parent="1" source="3orKfRhoxR8PiGyoWkrm-13" target="3orKfRhoxR8PiGyoWkrm-15" edge="1">
                    <mxGeometry relative="1" as="geometry"/>
                </mxCell>
                <mxCell id="2" value="http://www.52im.net/thread-3247-1-1.html" style="text;html=1;strokeColor=none;fillColor=none;align=center;verticalAlign=middle;whiteSpace=wrap;rounded=0;" vertex="1" parent="1">
                    <mxGeometry x="120" y="170" width="150" height="50" as="geometry"/>
                </mxCell>
            </root>
        </mxGraphModel>
    </diagram>
</mxfile>